<svg id="_0369_chef" xmlns="http://www.w3.org/2000/svg" viewBox="0 0 500 500" data-imageid="chef-58" imageName="Chef" class="illustrations_image" style="width: 169px;"><defs><style>.cls-1_chef-58{fill:#fff;}.cls-2_chef-58{fill:#f4a28c;}.cls-3_chef-58{opacity:.46;}.cls-3_chef-58,.cls-4_chef-58,.cls-5_chef-58,.cls-6_chef-58,.cls-7_chef-58,.cls-8_chef-58{fill:none;}.cls-9_chef-58{fill:#a5a5a5;}.cls-4_chef-58{opacity:.58;}.cls-10_chef-58{opacity:.5;}.cls-10_chef-58,.cls-11_chef-58{fill:#e6e6e6;}.cls-12_chef-58{fill:#ce8172;}.cls-5_chef-58{opacity:.03;}.cls-6_chef-58{opacity:.73;}.cls-7_chef-58{opacity:.08;}.cls-8_chef-58{opacity:.31;}.cls-13_chef-58{fill:#24285b;}.cls-14_chef-58{fill:#000001;}.cls-15_chef-58{fill:#ffd200;}.cls-16_chef-58{fill:#68e1fd;}</style></defs><path id="smoke_chef-58" class="cls-10_chef-58" d="m363,171.61s13.94-22.93-15.95-33.68c-29.89-10.75-37.48-28.91-23.53-42.45,13.95-13.55,32.57,13.71,45.43-7.31s-4.78-43.18,27.59-50.57,40.98,11.37,33.44,36.16c-7.54,24.79,3.78,29.47,17.51,29.44,13.74-.03,38.67,32.61,16.51,48.15-22.16,15.54-47.95-10.54-64.24,27.32l-36.76-7.06Z"/><g id="sd_chef-58" class="cls-5_chef-58"><ellipse class="cls-14_chef-58" cx="251.59" cy="441.05" rx="233.46" ry="22.98"/></g><g id="plant_chef-58"><g class="cls-4_chef-58"><path class="cls-16_chef-58 targetColor" d="m273.43,406.43s-18.03-4.92-21.95-21.71c0,0,27.94-5.65,28.73,23.19l-6.78-1.48Z" style="fill: rgb(104, 225, 253);"/></g><g class="cls-6_chef-58"><path class="cls-16_chef-58 targetColor" d="m275.64,404.64s-12.6-19.92-1.51-38.54c0,0,21.24,13.49,11.8,38.58l-10.29-.04Z" style="fill: rgb(104, 225, 253);"/></g><path class="cls-16_chef-58 targetColor" d="m278.89,404.66s6.66-21.03,26.78-25.02c0,0,3.77,13.66-13.03,25.07l-13.75-.06Z" style="fill: rgb(104, 225, 253);"/><polygon class="cls-13_chef-58" points="265.81 404.18 269.47 429.19 292.49 429.29 295.88 404.31 265.81 404.18"/></g><g id="cooker_chef-58"><path class="cls-11_chef-58" d="m404.99,144.69c-.45-.8-.96-1.62-1.73-2.12s-1.88-.6-2.57.02c-.64.57-.71,1.53-.74,2.39-.07,2.06-.14,4.13-.2,6.19-1.19-3.16-2.7-6.19-4.5-9.05-2.16-3.43-5.33-6.91-9.38-6.85-.87.01-1.91.34-2.12,1.19-.11.44.03.9.18,1.32,1.19,3.36,2.82,6.58,3.73,10.03.91,3.45,1.04,7.3-.69,10.43-1.07-2.56-2.69-4.89-4.73-6.78-1.17-1.08-2.9-2.05-4.26-1.23-.98.59-1.29,1.9-1.17,3.04s.58,2.22.77,3.35c.53,3.25-1.25,6.4-3.22,9.03-1.97,2.63-4.28,5.18-5.09,8.37-1.07,4.23.89,8.87,4.23,11.69,3.34,2.81,7.83,3.98,12.2,3.97,6.44,0,18.19-1.76,22.29-7.55,3.9-5.5,3.18-15.92,2.24-22.11-.82-5.36-2.58-10.59-5.25-15.32Z"/><path class="cls-2_chef-58" d="m177.65,120.79c14.27-17.58,42.63-14.33,51.92,6.32,2.55,5.66,4.29,12.78,4.68,21.73,1.93,44.75,25.05,69.16,46.25,61.45,21.2-7.71,31.48-45.12,31.48-45.12,0,0,17.34-12.37,21.2,0,3.85,12.37-12.2,12.45-12.2,12.45,0,0-20.6,121.03-110.48,43.6-56.84-48.97-47.43-82.44-32.83-100.43Z"/><g class="cls-7_chef-58"><path class="cls-14_chef-58" d="m177.65,120.79c14.27-17.58,42.63-14.33,51.92,6.32,2.55,5.66,4.29,12.78,4.68,21.73,1.93,44.75,25.05,69.16,46.25,61.45,21.2-7.71,31.48-45.12,31.48-45.12,0,0,17.34-12.37,21.2,0,3.85,12.37-12.2,12.45-12.2,12.45,0,0-20.6,121.03-110.48,43.6-56.84-48.97-47.43-82.44-32.83-100.43Z"/></g><path class="cls-2_chef-58" d="m213.69,65.59s4.08,9.68,4.54,16.84c.19,2.9-2.05,5.45-4.96,5.59-3.61.18-8.54-.63-11.36-5.55l-5.8-7.76s-3.46-4.99.86-10.86c4.33-5.87,14.53-4.28,16.72,1.74Z"/><polygon class="cls-2_chef-58" points="197.04 74.43 193 108.59 212.24 110.86 207.42 84.89 197.04 74.43"/><path class="cls-2_chef-58" d="m215.95,71.82l4.02,2.95c.99.73.89,2.24-.19,2.83l-3.59,1.95-.24-7.74Z"/><g class="cls-8_chef-58"><path class="cls-12_chef-58" d="m207.85,87.09s-2.65-.25-5.22-2.06c0,0-2.18,12.09,7.19,12.77l-1.96-10.71Z"/></g><path class="cls-2_chef-58" d="m204.55,76.36s-1.31-3.82-4.11-2.59c-2.8,1.23-.93,6.76,3.17,6.02l.94-3.42Z"/><path class="cls-13_chef-58" d="m211.45,65.8c-2.13,1.41-5.14,2.73-9.34,3.79,0,0,2.43,11.61-5.02,17.82,0,0-14.71-12.79-7.31-23.11,6.2-8.64,10.5-15.82,19.92-12.41,6.02,2.18,7.09,10.38,1.75,13.9Z"/><circle class="cls-13_chef-58" cx="182.37" cy="61.98" r="10.44"/><path class="cls-2_chef-58" d="m204.6,75.2s-2.2-4.14-5.37-2.06c-3.17,2.08-1.05,7.12,4.1,7.34l1.28-5.28Z"/><path class="cls-16_chef-58 targetColor" d="m181.77,104.51l8.55.34c9.95.4,19.64,3.22,28.21,8.28,17.8,10.5,44.79,30.92,41.05,56.61-5.52,37.93-34.48,72.4-34.48,72.4l-71.02-2.76s-59.77-138.06,27.69-134.88Z" style="fill: rgb(104, 225, 253);"/><g class="cls-7_chef-58"><path class="cls-14_chef-58" d="m173.68,118.65s38.25,27.42,15.26,75.81c-22.98,48.39,5.95,46.53,5.95,46.53l-40.81-1.58-6.63-17.54,26.23-103.21Z"/></g><path class="cls-2_chef-58" d="m179.66,131.88c-1.81-19.26-25.96-27.34-39.07-13.12-7.96,8.63-14.33,21.44-14.57,40.37-.62,49.25-25.42,77.26-56.88,37.1-3.11-3.97-7.66-6.54-12.68-6.97-6.39-.55-14.15-.05-14.89,5.41-1.45,10.61,6.73,11.07,12.35,10.2,3-.46,5.96.94,7.43,3.6,6.14,11.16,23.79,37.59,51.52,33.52,29.97-4.4,72.34-51.43,66.81-110.11Z"/><path class="cls-2_chef-58" d="m157.86,264.11l-19.53,62.36c-5.33,17.01-17.5,31.03-33.6,38.68l-28.66,13.63,1.15,8.46,42.84-9.24c20.33-6.02,37.19-20.32,46.45-39.39l30.26-62.31-38.91-12.18Z"/><polygon class="cls-2_chef-58" points="222.47 281.69 231.64 415.26 223.12 418.22 189.21 293.26 222.47 281.69"/><path class="cls-16_chef-58 targetColor" d="m233.39,417.55s1.85,7.91,7.81,10.36c5.96,2.45,2.95,11.09-6.03,5.84-3.42-2-6.03-3.93-7.94-5.54-2.28-1.92-5.1-2.9-8.03-3.43-.91-.16-1.75-.79-2.17-2.32-1.19-4.37,8.72-8.5,8.72-8.5l7.65,3.59Z" style="fill: rgb(104, 225, 253);"/><path class="cls-16_chef-58 targetColor" d="m77.22,387.23s-6.05,4.62-5.85,10.65c.2,6.03-8.34,6.77-7.3-2.9.4-3.69,1.04-6.66,1.68-8.91.76-2.68.52-5.47-.15-8.18-.21-.84,0-1.8,1.15-2.74,3.28-2.7,10.61,4.18,10.61,4.18l-.13,7.91Z" style="fill: rgb(104, 225, 253);"/><polygon class="cls-16_chef-58 targetColor" points="151.54 233.56 228.12 237.64 240.33 343.85 116.42 338.71 151.54 233.56" style="fill: rgb(104, 225, 253);"/><g class="cls-7_chef-58"><path class="cls-14_chef-58" d="m181.77,237.64s-12.38,14.63-21.07,47.21c-8.7,32.58-8.78,55.01-8.78,55.01l-35.5-1.15,35.12-105.15,30.23,4.08Z"/></g><path class="cls-13_chef-58" d="m228.12,237.65l16.16,74.08-56.58,3.38c7.35-37.31-36.16-81.55-36.16-81.55,0,0,38.18-38.31,51.26-64.32,3.02-6,4.7-11.35,4.28-15.42-2.31-21.74-32.71-49.21-32.71-49.21,0,0,4.58-.86,10.59-1.51,10.11,13.16,44.49,43.26,46.73,31.58,1.28-6.64-1.86-8.02-11.78-20.83,2.84,1.56,8.12,4.77,8.12,4.77,3.69,2.42,7.28,10.74,11.33,13.93,3.22,2.53,24.41,17.79,26.21,29.74,4.25,28.35-37.46,75.35-37.46,75.35Z"/><path class="cls-16_chef-58 targetColor" d="m47.1,116.5l-3.97-17.44c-.37-1.64-2.01-2.67-3.65-2.29l-22.15,5.04c-1.64.37-2.67,2.01-2.29,3.65l3.99,17.51c.78,3.4,2.82,6.38,5.72,8.33l10.22,6.86,17.35,76.17c.27,1.2,1.47,1.96,2.67,1.68h0c1.2-.27,1.96-1.47,1.68-2.67l-17.4-76.38,6.22-10.36c1.82-3.03,2.4-6.64,1.61-10.09Zm-11.72-12.94c-.13-.59.22-1.19.83-1.33s1.22.24,1.35.83l3.96,17.39c.13.59-.24,1.19-.86,1.33s-1.19-.24-1.33-.83l-3.96-17.39Zm-6.79,1.55c-.13-.59.24-1.19.83-1.33.61-.14,1.22.24,1.35.83l3.96,17.39c.13.59-.24,1.19-.86,1.33s-1.19-.24-1.33-.83l-3.96-17.39Zm-6.79,1.55c-.13-.59.24-1.19.83-1.33s1.22.24,1.35.83l3.96,17.39c.13.59-.24,1.19-.86,1.33s-1.19-.24-1.33-.83l-3.96-17.39Z" style="fill: rgb(104, 225, 253);"/><polygon class="cls-13_chef-58" points="352.29 166.83 352.36 169.37 310.68 161.97 309.73 167.33 352.51 174.93 352.94 190.75 407.6 200.46 416.45 178.22 352.29 166.83"/><path class="cls-11_chef-58" d="m365.53,141.47c-1.08-.42-2.49-.2-3.11.77-.49.76-.39,1.73-.23,2.62.53,2.95,2.92,6.68,5.76,2.95,1.84-2.42.12-5.36-2.41-6.34Z"/><path class="cls-11_chef-58" d="m375.82,135.08c-.49-1.32-1.91-2.23-3.32-2.11-.53.04-1.15.33-1.2.86-.02.22.05.43.13.63.32.87.67,1.77,1.33,2.41s1.75.95,2.53.45c.82-.53.9-1.9.14-2.52"/></g><g id="table_chef-58"><path class="cls-15_chef-58" d="m396.29,246.9c-3.35-.4-6.71-.88-10.02-1.56-2.69-.55-5.57.02-8.24-.67-2.6-.66-4.5-2.9-5.77-5.26-1.1-2.06-1.86-4.34-1.86-6.68,0-2.33.81-4.72,2.49-6.35,1.28,2.45,2.55,4.9,3.83,7.35.13-2.84,1.47-5.61,3.63-7.48,2.09,2.51,3.86,5.27,5.28,8.22.43-2.65,1.3-5.22,2.54-7.6.16-.31.35-.63.68-.75.57-.22,1.14.31,1.52.79,1.28,1.62,2.46,4.3,4.12,5.42,1.73-1.65,2.98-4.17,4.32-6.17,3.25,2.39,5.7,5.85,6.88,9.7,1.85-2.63,3.42-5.46,4.68-8.42,2.18,1.86,3.62,4.56,3.96,7.4,1.28-1.64,2.59-3.34,3.13-5.35.19-.7.53-1.62,1.25-1.53.31.04.55.28.76.52,1.53,1.75,2.4,4.06,2.42,6.38,0-1.11,7.67-3.74,8.91-4.09.08,2.94-1.18,5.79-2.99,8.11-3.5,4.46-8.97,7.07-14.55,8.09-5.58,1.02-11.32.59-16.95-.08Z"/><rect class="cls-9_chef-58" x="329.76" y="249.46" width="131.68" height="16.8"/><rect class="cls-11_chef-58" x="340.07" y="266.25" width="111.07" height="169.16"/><rect class="cls-13_chef-58" x="331.78" y="240.98" width="127.63" height="8.47"/><rect class="cls-13_chef-58" x="398.35" y="232.88" width="4.9" height="8.1"/><polygon class="cls-13_chef-58" points="373.26 244.01 378.16 244.01 373.26 235.91 368.36 235.91 373.26 244.01"/><polygon class="cls-13_chef-58" points="428.34 244.01 423.45 244.01 428.34 235.91 433.24 235.91 428.34 244.01"/><g class="cls-3_chef-58"><rect class="cls-1_chef-58" x="398.35" y="285.56" width="52.78" height="137.31"/></g></g></svg>