<svg id="_0414_restaurant" xmlns="http://www.w3.org/2000/svg" xmlns:xlink="http://www.w3.org/1999/xlink" viewBox="0 0 500 500" data-imageid="restaurant-15" imageName="Restaurant" class="illustrations_image" style="width: 169px;"><defs><style>.cls-1_restaurant-15{fill:url(#linear-gradient);}.cls-1_restaurant-15,.cls-2_restaurant-15,.cls-3_restaurant-15,.cls-4_restaurant-15,.cls-5_restaurant-15,.cls-6_restaurant-15,.cls-7_restaurant-15,.cls-8_restaurant-15,.cls-9_restaurant-15,.cls-10_restaurant-15,.cls-11_restaurant-15,.cls-12_restaurant-15,.cls-13_restaurant-15,.cls-14_restaurant-15,.cls-15_restaurant-15,.cls-16_restaurant-15,.cls-17_restaurant-15,.cls-18_restaurant-15,.cls-19_restaurant-15,.cls-20_restaurant-15,.cls-21_restaurant-15,.cls-22_restaurant-15{stroke-width:0px;}.cls-2_restaurant-15{isolation:isolate;opacity:.18;}.cls-2_restaurant-15,.cls-22_restaurant-15{fill:#68e1fd;}.cls-3_restaurant-15{fill:url(#linear-gradient-11-restaurant-15);}.cls-4_restaurant-15{fill:url(#linear-gradient-12-restaurant-15);}.cls-5_restaurant-15{fill:url(#linear-gradient-13-restaurant-15);}.cls-6_restaurant-15{fill:url(#linear-gradient-10-restaurant-15);}.cls-7_restaurant-15{fill:url(#linear-gradient-15-restaurant-15);}.cls-8_restaurant-15{fill:url(#linear-gradient-14-restaurant-15);}.cls-9_restaurant-15{fill:url(#linear-gradient-4-restaurant-15);}.cls-10_restaurant-15{fill:url(#linear-gradient-2-restaurant-15);}.cls-11_restaurant-15{fill:url(#linear-gradient-3-restaurant-15);}.cls-12_restaurant-15{fill:url(#linear-gradient-8-restaurant-15);}.cls-13_restaurant-15{fill:url(#linear-gradient-9-restaurant-15);}.cls-14_restaurant-15{fill:url(#linear-gradient-7-restaurant-15);}.cls-15_restaurant-15{fill:url(#linear-gradient-5-restaurant-15);}.cls-16_restaurant-15{fill:url(#linear-gradient-6-restaurant-15);}.cls-17_restaurant-15{fill:#5d2e33;}.cls-18_restaurant-15{fill:#3d3d52;}.cls-19_restaurant-15{fill:#984c5d;}.cls-20_restaurant-15{fill:#fff;}.cls-21_restaurant-15{fill:#ffb4a3;}</style><linearGradient id="linear-gradient-restaurant-15" x1="222.4" y1="3048.83" x2="313.79" y2="3048.83" gradientTransform="translate(626.16 3337.31) rotate(-180)" gradientUnits="userSpaceOnUse"><stop offset="0" stop-color="#231f20" stop-opacity="0"/><stop offset="1" stop-color="#231f20"/></linearGradient><linearGradient id="linear-gradient-2-restaurant-15" x1="241.99" y1="3058.61" x2="304.47" y2="3058.61" xlink:href="#linear-gradient-restaurant-15"/><linearGradient id="linear-gradient-3-restaurant-15" x1="316.42" y1="160.32" x2="380.93" y2="653.57" gradientUnits="userSpaceOnUse"><stop offset="0" stop-color="#fff" stop-opacity="0"/><stop offset="1" stop-color="#fff"/></linearGradient><linearGradient id="linear-gradient-4-restaurant-15" x1="-83.65" y1="3132.76" x2="-68.76" y2="3132.76" gradientTransform="translate(370.83 3337.31) scale(1 -1)" xlink:href="#linear-gradient-restaurant-15"/><linearGradient id="linear-gradient-5-restaurant-15" x1="-104.4" y1="2932.39" x2="-97.24" y2="2981.73" gradientTransform="translate(370.83 3337.31) scale(1 -1)" xlink:href="#linear-gradient-restaurant-15"/><linearGradient id="linear-gradient-6-restaurant-15" x1="-117.54" y1="2956.19" x2="-87.87" y2="2956.19" gradientTransform="translate(370.83 3337.31) scale(1 -1)" xlink:href="#linear-gradient-restaurant-15"/><linearGradient id="linear-gradient-7-restaurant-15" x1="204.85" y1="200.69" x2="191.38" y2="298.43" gradientTransform="matrix(1,0,0,1,0,0)" xlink:href="#linear-gradient-restaurant-15"/><linearGradient id="linear-gradient-8-restaurant-15" x1="-152.33" y1="3140.91" x2="-113.39" y2="3140.91" gradientTransform="translate(370.83 3337.31) scale(1 -1)" xlink:href="#linear-gradient-restaurant-15"/><linearGradient id="linear-gradient-9-restaurant-15" x1="-270.17" x2="-178.78" gradientTransform="translate(370.83 3337.31) scale(1 -1)" xlink:href="#linear-gradient-restaurant-15"/><linearGradient id="linear-gradient-10-restaurant-15" x1="-250.53" y1="3058.61" x2="-188.05" y2="3058.61" gradientTransform="translate(370.83 3337.31) scale(1 -1)" xlink:href="#linear-gradient-restaurant-15"/><linearGradient id="linear-gradient-11-restaurant-15" x1="-225.8" y1="3010.5" x2="-141.27" y2="3010.5" gradientTransform="translate(370.83 3337.31) scale(1 -1)" xlink:href="#linear-gradient-restaurant-15"/><linearGradient id="linear-gradient-12-restaurant-15" x1="138.56" y1="246.8" x2="297.87" y2="320.75" gradientTransform="matrix(1,0,0,1,0,0)" xlink:href="#linear-gradient-restaurant-15"/><linearGradient id="linear-gradient-13-restaurant-15" x1="227.81" y1="227.05" x2="-50.2" y2="341.73" gradientTransform="matrix(1,0,0,1,0,0)" xlink:href="#linear-gradient-restaurant-15"/><linearGradient id="linear-gradient-14-restaurant-15" x1="248.15" y1="311.67" x2="245.98" y2="239.99" xlink:href="#linear-gradient-3-restaurant-15"/><linearGradient id="linear-gradient-15-restaurant-15" x1="-133.69" y1="3080.83" x2="-90.7" y2="3080.83" gradientTransform="translate(370.83 3337.31) scale(1 -1)" xlink:href="#linear-gradient-restaurant-15"/></defs><g id="background_restaurant-15"><path id="background-2_restaurant-15" class="cls-2_restaurant-15 targetColor" d="M236.4,82.79c-2.48.37-4.97.66-7.45.9-50.14,4.68-103.2-17.34-149.68,2.42C20.82,111.05,4.33,187.85,7.67,252.46c1.9,36.87,7.59,73.44,16.96,109.1,8.76,33.28,22.52,68.06,51.12,86.32,23.16,14.83,51.88,16.12,79.16,17l109.55,3.48c44.01,1.39,90.29,2.27,129.23-18.69,45.33-24.4,86.77-84.07,96.92-135.17,4.85-24.49-2.08-43.19-3-67.32-1.29-34.41,6.68-66.33-.46-101.06-8.72-42.37-35.6-83.63-76.1-96.37-57.42-18.15-114.97,24.52-174.65,33.04Z" style="fill: rgb(104, 225, 253);"/><ellipse class="cls-2_restaurant-15 targetColor" cx="247.53" cy="395.35" rx="199.12" ry="25.22" style="fill: rgb(104, 225, 253);"/></g><g id="character_2_restaurant-15"><path class="cls-21_restaurant-15" d="M293.25,324.7c-9.2,18.08-18.83,35.93-28.87,53.55,5.93.66,11.93.05,17.61-1.8,1.17-.29,2.24-.9,3.08-1.76,1.12-1.35,1.07-3.26,1.29-4.97.56-3.1,1.66-6.08,3.26-8.8,3.68-7.08,7.85-13.9,12.46-20.41,6.59-9.32,14.32-18.46,16.49-29.65.26-.83.19-1.72-.21-2.49-.76-.79-1.86-1.14-2.93-.94-4.8.3-9.33,2.33-12.75,5.71"/><polyline class="cls-18_restaurant-15" points="330.34 326.76 319.05 323.37 304.34 389.68 307.73 389.68"/><polyline class="cls-18_restaurant-15" points="360.77 326.76 372.08 323.37 386.77 389.68 383.38 389.68"/><path class="cls-22_restaurant-15 targetColor" d="M387.78,243.42c7.59,2.07,12.98,9.23,14.91,16.86,1.92,7.63.88,15.68-.73,23.39-2.61,12.53-7.13,25.31-16.64,33.88-6.09,5.49-13.81,8.8-21.52,11.63s-15.58,5.11-23.71,5.03c-8.13-.07-16.52-2.8-22.01-8.8-5.81-6.67-7.35-16.04-3.99-24.22,2.93-6.81,8.95-11.74,15.32-15.58s13.2-6.68,19.38-10.86c8.25-5.56,15.19-12.84,20.36-21.33,4.01-6.97,9.84-12.4,18.63-9.99Z" style="fill: rgb(104, 225, 253);"/><path class="cls-1_restaurant-15" d="M318.12,325.36c5.43,6.04,13.85,8.8,22.01,8.8s16.14-2.27,23.71-5.03,15.44-6.15,21.52-11.63c9.52-8.57,14.03-21.36,16.64-33.88,1.61-7.7,2.64-15.76.72-23.39-1.92-7.63-7.34-14.79-14.89-16.86-1.91-.55-3.9-.71-5.87-.47-5.63.75-9.74,5.15-12.75,10.42-5.17,8.5-12.12,15.77-20.36,21.33-4.7,3-9.57,5.73-14.58,8.17-1.61.87-3.21,1.75-4.78,2.69-6.38,3.8-12.43,8.8-15.33,15.58-3.38,8.19-1.84,17.59,3.98,24.27Z"/><path class="cls-10_restaurant-15" d="M321.7,300.89c.22.97.69,1.86,1.36,2.6,1.41,1.78,2.83,3.54,4.27,5.28,1.29,1.73,2.91,3.2,4.75,4.33,2.2,1,4.61,1.46,7.03,1.32,6.18.01,12.31-1.03,18.13-3.08,4.83-1.49,9.19-4.21,12.65-7.91,2.53-3.3,4.51-7,5.87-10.93,2.93-7.34,5.87-14.67,6.65-22.49.38-3.74.26-7.53.76-11.27.65-4.97,2.41-11.91-1.23-15.79-5.63.75-9.74,5.15-12.75,10.42-5.17,8.5-12.12,15.77-20.36,21.33-4.7,3-9.57,5.73-14.58,8.17l-.92,1.16c-3.83,4.65-8.6,8.67-11.05,14.16-.44.83-.64,1.76-.57,2.7Z"/><path class="cls-21_restaurant-15" d="M303.29,239.87c-2.35-1.87-4.05-4.44-4.84-7.34-.75-2.9-1.7-5.74-2.85-8.51-1.48-3-3.8-5.5-6.68-7.2-1.09-.73-2.37-1.12-3.68-1.1-1.38.21-2.66.86-3.65,1.85-1.87,1.45-3.13,3.54-3.55,5.87-.08,2.82,1.07,5.53,3.15,7.42,1.92,2.01,4.25,3.59,6.13,5.63,1.48,1.76,2.84,3.61,4.09,5.53,6.26,8.7,15.26,15.04,25.56,18,1.41.57,2.99.57,4.4,0,.6-.39,1.13-.89,1.56-1.47,2.68-3.17,5.16-6.98,5.69-11.19.21-1.57.32-4.21-.7-5.58-1.03-1.36-3.58-1.47-5.33-1.47-6.47.07-13.2,3.7-19.31-.45Z"/><path class="cls-18_restaurant-15" d="M302.05,149.38c4.87-7.89,15.44-12.05,24.12-8.8.8.39,1.68.61,2.57.65.94-.15,1.84-.47,2.67-.94,3.29-1.29,6.96-1.23,10.2.19,3.2,1.42,6.1,3.4,8.58,5.87,3.09,2.69,5.55,6.04,7.17,9.8,3.18,8.28-.41,17.87,2.23,26.41,3.08,9.85,13.85,15.92,16.51,25.9,1.29,4.87.36,10.06-2.55,14.17-2.99,4.07-7.78,6.41-12.82,6.28-3.2-.15-6.26-1.35-9.45-1.72-1.5-.02-2.99-.29-4.4-.79-1.09-.6-2.04-1.43-2.77-2.44-5.87-7.34-8.29-16.96-13.78-24.62-6.09-8.51-15.16-10.9-23.12-16.92-5.47-4.12-7.1-10.17-8.16-16.74-.99-5.62.08-11.41,3.01-16.3Z"/><path class="cls-21_restaurant-15" d="M302.38,180.03l-.67,2.77c-.19.57-.22,1.18-.09,1.76.25.81,1.06,1.28,1.66,1.85,1.75,1.66,1.98,4.4,3.17,6.44,1.86,3.26,5.87,4.72,9.6,4.92,1.94-.11,3.88.16,5.71.81,2.27,1.13,3.43,3.71,3.98,6.19.41,1.85.56,3.75.47,5.65-.29,5.49-2.68,10.84-2.01,16.29,4.74-.45,9.11-2.67,13.35-4.86s9.08-5.02,10.2-9.74c1.54-6.56-3.7-13.01-4.59-19.31-1.14-8.05-.18-16.27-1.28-24.36-.32-3.71-1.65-7.27-3.86-10.27-1.53-1.75-3.39-3.19-5.46-4.24-8.3-4.5-18.6-3.29-23.75,5.25-2.01,3.75-3.44,7.78-4.23,11.96l-2.19,8.89Z"/><path class="cls-22_restaurant-15 targetColor" d="M345.75,209.22s-1.47-1.7-4.28,0c-2.82,1.7-14.28,17.78-17.28,17.5-3.01-.28-8.52,11.28-6.97,16.84s5.87,9.32,6.35,15.52c.48,6.21,4.24,20.2,4.24,20.2l-23.48,9.61s7.85,30.24,9.3,29.34c1.45-.9,37.05-8.33,42.97-16.87,5.93-8.54,4.24-22.4,4.24-22.4,0,0-10.97-47.39-9.04-56.8,1.26-5.2-1.26-10.59-6.06-12.96Z" style="fill: rgb(104, 225, 253);"/><path class="cls-11_restaurant-15" d="M345.75,209.22s-1.47-1.7-4.28,0c-2.82,1.7-14.28,17.78-17.28,17.5-3.01-.28-8.52,11.28-6.97,16.84s5.87,9.32,6.35,15.52c.48,6.21,4.24,20.2,4.24,20.2l-23.48,9.61s7.85,30.24,9.3,29.34c1.45-.9,37.05-8.33,42.97-16.87,5.93-8.54,4.24-22.4,4.24-22.4,0,0-10.97-47.39-9.04-56.8,1.26-5.2-1.26-10.59-6.06-12.96Z"/><path class="cls-18_restaurant-15" d="M326.56,173.11c1.5.33,2.97.78,4.4,1.34,1.46.59,2.47,1.96,2.6,3.54-.29-1.36,1.29-2.58,2.66-2.29,1.35.43,2.33,1.61,2.49,3.02.36,2.52-1.06,4.95-3.43,5.87,2.51,3.18,2,7.67,2.22,11.74.26,4.56,1.59,8.98,3.89,12.93,1.41,2.59,3.42,4.79,5.87,6.43,1.72,1.06,4.27,1.58,5.56,0,.57-.85.86-1.84.85-2.86,1.38-15.48,1.76-31.47-3.46-46.09-1.1-3.32-2.72-6.45-4.8-9.26-4.4-5.71-11.44-8.98-18.56-10.14-6.82-1.1-15.51.84-12.78,9.2,2.23,6.71,5.16,14.29,12.5,16.58Z"/><path class="cls-21_restaurant-15" d="M342.9,209.22c-2.05,1.18-3.73,2.92-4.83,5.02-5.58,9.18-7.2,20.35-12.85,29.49-.74,1.3-1.69,2.46-2.82,3.43-1.12.82-2.35,1.47-3.65,1.94-7.03,2.79-14.46,4.48-22.01,5-3.58.25-6.75.51-10.02-.87-7.39-3.16-15.94.26-19.11,7.65-.06.14-.12.28-.17.42-.19.4-.19.86,0,1.26.25.44.85.51,1.36.53l7.45.31,10.02.4h1.79c9.93.4,21.08,2.08,30.81-.76,9.73-2.85,16.49-10.58,23.3-17.75,3.57-3.46,6.76-7.28,9.52-11.41,2.77-4.18,3.91-9.24,3.2-14.2-1.01-4.83-7.07-9.82-12-10.45Z"/><path class="cls-20_restaurant-15" d="M282.29,226l-7.98,10.86s-1.04,1.47,1.22.66,9.61-13.67,9.61-13.67c1.47-2.66,3.29-5.16,4.8-7.82.32-.56.62-1.13.91-1.72.05-.13.14-.25.25-.34.12-.03.25-.03.37,0h1.39c.41.03.81.03,1.22,0,.47-.07.91-.24,1.31-.5,1.39-1.04,2.42-2.49,2.93-4.15.39-.74.52-1.59.37-2.41-.45.37-.83.82-1.1,1.34-.48.72-1.04,1.38-1.66,1.98-.23.28-.57.45-.94.47-.09,0-.17-.05-.23-.1-.12-.13,0-.34,0-.51l1.98-4.87c.12-.23.15-.5.09-.75-.55.06-1.04.34-1.38.78-.34.42-.62.89-.84,1.38-.52,1.12-1.16,2.18-1.91,3.15-.05.09-.14.16-.23.19-.14.01-.28-.07-.32-.21-.04-.13-.04-.27,0-.4.23-1.8,1.89-3.2,2.01-5-.68.19-1.28.61-1.67,1.2-.39.59-.71,1.21-.98,1.86-.38.82-.81,1.62-1.29,2.39-.3.43-.55.9-.73,1.39-.16.49-.11,1.02.15,1.47.03.04.06.09.07.15.01.05.01.11,0,.16l-1.25,2.01c-.35.56-.73,1.06-1.12,1.57-.26.43-.48.87-.66,1.34-.57,1.13-1.14,2.26-1.73,3.37l-2.42,4.59-.22.13Z"/><path class="cls-17_restaurant-15" d="M288.22,201.48c-.2.19-.37.41-.48.66-.09.31-.09.63,0,.94.58,1.46,1.88,2.52,3.43,2.79,1.5.26,2.97.65,4.4,1.16,1.28.62,2.46,1.7,3.87,1.58.92-.15,1.73-.68,2.23-1.47.48-.77.86-1.6,1.13-2.46.27-.47.1-1.07-.38-1.34,0,0-.01,0-.02-.01-2.36-1.77-5.03-3.07-7.88-3.83-2.54-.72-4.36.03-6.31,1.98Z"/><path class="cls-9_restaurant-15" d="M290.23,201.75c.49.46,1.08.82,1.72,1.04,1.63.61,3.33,1.03,5.06,1.23.38.04.75.11,1.12.22.69.32,1.32.74,1.88,1.26.57.51,1.3.81,2.07.82,0,.78-.36,1.51-.98,1.98-1.1.65-2.45.7-3.59.13-1.16-.47-2.2-1.2-3.39-1.61-1.63-.56-3.43-.47-5.03-1.09-.35-.13-.68-.32-.97-.56-.82-.73-1.13-1.89-.78-2.93.23-.8.76-1.48,1.47-1.91.92-.43.97.91,1.44,1.41Z"/><path class="cls-22_restaurant-15 targetColor" d="M287.6,370.2c-2.93-.44-5.65,1.47-8.42,2.49-1.51.56-3.07.98-4.67,1.23-1.47.28-2.71.6-4.03-.4-.79-.68-1.43-1.51-1.88-2.45-.11-.34-.47-.53-.81-.42-.1.03-.19.09-.26.16-1.44.9-2.83,1.88-4.15,2.93-2.41,1.46-4.72,3.08-6.91,4.86-.71.71-1.37,1.47-2,2.26-.81.98-2.02,2.6-.32,3.27,3.73,1.49,7.89,1.46,11.59-.1,1.76-.76,3.36-1.83,5.06-2.68,1.32-.67,2.7-1.2,4.12-1.58.77-.29,1.62-.29,2.39,0,1.47.73,1.26,2.85.84,4.4-.19.73,3.67-.43,3.99-.69.97-1.01,1.77-2.17,2.38-3.43,2.1-2.85,3.18-6.31,3.08-9.85Z" style="fill: rgb(104, 225, 253);"/><path class="cls-15_restaurant-15" d="M284.54,380.07c-.62,1.26-1.43,2.41-2.39,3.43-.39.19-.79.34-1.2.45-1.22.37-2.93.73-2.79.23.43-1.57.62-3.7-.84-4.4-.78-.29-1.63-.29-2.41,0-1.42.39-2.79.92-4.11,1.57-1.7.87-3.3,1.94-5.06,2.7-3.7,1.56-7.87,1.6-11.61.1-1.69-.67-.47-2.29.34-3.27v-.1c.6-.75,1.24-1.47,1.92-2.16,2.18-1.78,4.49-3.4,6.91-4.86,1.33-1.06,2.71-2.04,4.15-2.93.21-.15.47-.2.72-.13.15.09.28.23.35.4.45.93,1.08,1.77,1.86,2.45,1.34,1,2.55.67,4.05.4,1.59-.26,3.15-.67,4.67-1.23,2.77-1.07,5.49-2.93,8.42-2.49.11,3.52-.94,6.98-2.99,9.84Z"/><path class="cls-16_restaurant-15" d="M282.95,378.49c-.25,1.95-.94,3.82-2.01,5.47-1.22.37-2.93.73-2.79.23.43-1.57.62-3.7-.84-4.4-.78-.29-1.63-.29-2.41,0-1.42.39-2.79.92-4.11,1.57-1.7.87-3.3,1.94-5.06,2.7-3.7,1.56-7.87,1.6-11.61.1-1.69-.67-.47-2.29.34-3.27v-.1c.54.15,1.09.29,1.63.4,1.17.19,2.36.24,3.55.16,2.01-.07,4-.36,5.94-.87,1.83-.48,3.59-1.17,5.4-1.76,3.3-1.15,6.77-1.74,10.27-1.73.55-.05,1.09.16,1.47.56.17.28.25.61.22.94Z"/><path class="cls-20_restaurant-15" d="M310.7,188.81c1.54-.22,3.1-.32,4.65-.31-.09,1.87-.82,3.64-2.07,5.03-.27.37-.69.62-1.14.67-.51-.08-.95-.4-1.19-.85-.81-1.17-1.27-2.54-1.34-3.96-.03-.08-.03-.17,0-.25.07-.09.18-.15.29-.16l1.76-.47"/></g><g id="character_1_restaurant-15"><path class="cls-22_restaurant-15 targetColor" d="M207.71,212.02l19.78-17.34c.39-.42.91-.72,1.47-.85.71-.02,1.4.28,1.88.81,2.38,2.24,2.66,6.06,1.47,9.14-1.3,3.01-3.18,5.74-5.53,8.03l-14.54,16.14c-.97,1.21-2.13,2.26-3.43,3.1-1.47.79-3.13,1.19-4.8,1.16-3.78-.19-7.49-1.13-10.92-2.74-5.87-2.36-12.25-5.14-15.41-10.68-3.46-6.07-2.76-23.39,6.5-24.4,8.63-.9,18.6,12.32,23.53,17.65Z" style="fill: rgb(104, 225, 253);"/><path class="cls-14_restaurant-15" d="M207.71,212.02l19.78-17.34c.39-.42.91-.72,1.47-.85.71-.02,1.4.28,1.88.81,2.38,2.24,2.66,6.06,1.47,9.14-1.3,3.01-3.18,5.74-5.53,8.03l-14.54,16.14c-.97,1.21-2.13,2.26-3.43,3.1-1.47.79-3.13,1.19-4.8,1.16-3.78-.19-7.49-1.13-10.92-2.74-5.87-2.36-12.25-5.14-15.41-10.68-3.46-6.07-2.76-23.39,6.5-24.4,8.63-.9,18.6,12.32,23.53,17.65Z"/><path class="cls-18_restaurant-15" d="M227.12,194.53s-10.56-10.99-8.3-15.07c2.26-4.08,10.74-7.47,12.06-6.53,1.32.94,21.27,31.18,21.27,31.18l-1.31,3.68,6.59,8.57-4.24,3.67-7.25-8.06-7.34-1.61-11.49-15.83Z"/><path class="cls-12_restaurant-15" d="M227.12,194.53s-10.56-10.99-8.3-15.07c2.26-4.08,10.74-7.47,12.06-6.53,1.32.94,21.27,31.18,21.27,31.18l-1.31,3.68,6.59,8.57-4.24,3.67-7.25-8.06-7.34-1.61-11.49-15.83Z"/><polyline class="cls-18_restaurant-15" points="143.64 326.76 132.34 323.37 117.64 389.68 121.03 389.68"/><polyline class="cls-18_restaurant-15" points="166.06 326.76 177.37 323.37 192.06 389.68 188.67 389.68"/><path class="cls-22_restaurant-15 targetColor" d="M239.11,388.36c.32.01.64-.06.92-.22.9-.56.37-1.95-.32-2.74-1.57-1.66-3.32-3.14-5.22-4.4l-7.34-5.28c-1.37-1.22-3.18-1.82-5-1.69l-6.28-.28c-.45-.05-.91,0-1.34.18-.48.29-.85.73-1.04,1.26-.91,2.24-1.38,4.63-1.39,7.04-.14,1.07,0,2.15.44,3.14.85,1.56,3.14,1.64,4.68,1.91,2.45.41,4.9.75,7.34.98,4.84.43,9.71.46,14.55.1Z" style="fill: rgb(104, 225, 253);"/><path class="cls-22_restaurant-15 targetColor" d="M116.64,243.42c-7.59,2.07-12.98,9.23-14.91,16.86-1.92,7.63-.88,15.68.73,23.39,2.61,12.53,7.13,25.31,16.64,33.88,6.09,5.49,13.81,8.8,21.52,11.63,7.72,2.83,15.58,5.11,23.71,5.03,8.13-.07,16.54-2.8,22.01-8.8,5.81-6.67,7.35-16.04,3.99-24.22-2.93-6.81-8.95-11.74-15.32-15.58-6.37-3.84-13.2-6.68-19.38-10.86-8.25-5.56-15.19-12.84-20.36-21.33-4.01-6.97-9.84-12.4-18.63-9.99Z" style="fill: rgb(104, 225, 253);"/><path class="cls-13_restaurant-15" d="M186.31,325.36c-5.43,6.04-13.84,8.8-22.01,8.8s-16.14-2.27-23.71-5.03c-7.57-2.76-15.44-6.15-21.52-11.63-9.51-8.57-14.03-21.36-16.64-33.88-1.61-7.7-2.64-15.76-.72-23.39,1.92-7.63,7.34-14.79,14.89-16.86,1.91-.55,3.9-.71,5.87-.47,5.63.75,9.74,5.15,12.75,10.42,5.17,8.5,12.12,15.77,20.36,21.33,4.7,3,9.57,5.73,14.58,8.17,1.61.87,3.21,1.75,4.8,2.69,6.37,3.8,12.41,8.8,15.32,15.58,3.38,8.19,1.84,17.59-3.98,24.27Z"/><path class="cls-6_restaurant-15" d="M182.77,300.89c-.22.97-.69,1.86-1.36,2.6-1.39,1.78-2.83,3.54-4.27,5.28-1.29,1.74-2.9,3.21-4.75,4.33-2.2,1-4.61,1.46-7.03,1.32-6.18.01-12.31-1.03-18.13-3.08-4.83-1.49-9.19-4.21-12.65-7.91-2.53-3.3-4.51-7-5.87-10.93-2.93-7.34-5.87-14.67-6.65-22.49-.38-3.74-.26-7.53-.76-11.27-.65-4.97-2.41-11.91,1.23-15.79,5.63.75,9.74,5.15,12.75,10.42,5.17,8.5,12.12,15.77,20.36,21.33,4.7,3,9.57,5.73,14.58,8.17l.92,1.16c3.83,4.65,8.6,8.67,11.05,14.16.44.83.64,1.76.57,2.7Z"/><path class="cls-18_restaurant-15" d="M145.11,300.61s-2.55,9.73,21.52,8.8c24.08-.92,46.72-4.08,46.72-4.08v70.84h12.71s3.51-73.46,3.51-84.78-56.62-13.94-56.62-13.94l-27.83,23.15Z"/><path class="cls-3_restaurant-15" d="M145.11,300.61s-2.55,9.73,21.52,8.8c24.08-.92,46.72-4.08,46.72-4.08v70.84h12.71s3.51-73.46,3.51-84.78-56.62-13.94-56.62-13.94l-27.83,23.15Z"/><path class="cls-21_restaurant-15" d="M217.44,163.67c0,3.27.25,6.76,2.26,9.35.63.81,1.47,1.73,1.16,2.7-.24.51-.61.95-1.07,1.28-2.16,1.95-2.93,4.96-3.83,7.73-.9,2.77-2.23,5.72-4.87,6.95-2.64,1.23-5.94.32-8.8,1.14-3.3.97-5.49,4.06-7.15,7.09-.25.43-.53.91-1.01,1.04-.38.06-.77,0-1.12-.19-3.35-1.31-6.55-2.98-9.55-4.96-.24-.12-.43-.32-.54-.56-.07-.29-.03-.6.1-.87,3.21-8.99,1.25-18.88.87-28.42-.19-4.8.1-9.83,2.45-14.03,3.48-6.19,10.9-9.32,18-9.46,1.47-.11,2.94.13,4.3.69,1.24.7,2.34,1.64,3.23,2.76,4.49,4.97,5.53,11.19,5.58,17.75Z"/><path class="cls-18_restaurant-15" d="M218.34,148.81c-3.37,2.23-6,6.18-10.04,6.44-1.42-.12-2.84-.12-4.25,0-2.46.56-3.87,3.13-4.7,5.52-1.11,3.5-1.94,7.08-2.48,10.71-.63-1.6-1.57-3.05-2.77-4.27-1.35-1.58-3.73-1.77-5.32-.42-1.15.98-1.6,2.55-1.15,3.99.38,1.64,1.09,3.19,2.08,4.55-1.56,2.73-3.17,5.42-4.86,8.08-3.57-4.65-6.56-9.72-8.89-15.1-2.35-5.39-3.36-11.27-2.93-17.14.25-4.08,1.79-7.97,4.4-11.11,2.69-3.14,6.84-4.63,10.92-3.89.47.16.97.21,1.47.16.45-.15.87-.4,1.22-.73,5.11-4.06,12.09-4.78,18.6-4.4,3.47-.02,6.88.8,9.96,2.39,1.7,1.01,3.07,2.48,3.96,4.24.82,1.31,1.57,2.66,2.24,4.05,1.32,3.48-5.27,5.46-7.47,6.93Z"/><path class="cls-22_restaurant-15 targetColor" d="M169.04,196.61c-15.24,10.42-26.22,25.97-30.96,43.81-2.84,10.7-3.59,21.85-2.2,32.84.68,5.47,1.86,10.88,3.51,16.14.65,2.05,2.01,4.31,2.42,6.35.31,1.47-.85,3.98.53,5.14.73.46,1.61.61,2.45.4,9.23-1.16,17.88-5.13,24.78-11.37,2.22-1.86,3.99-4.21,5.18-6.85,1.28-3.24,1.1-6.85,1.25-10.27.34-7.69,2.93-14,5.47-21.04,2.54-7.04,4.59-14.31,7.44-21.33,2.21-4.88,3.94-9.96,5.16-15.17,1.22-5.26.59-10.78-1.78-15.64-5.5-10.08-15.19-8.38-23.26-2.99Z" style="fill: rgb(104, 225, 253);"/><path class="cls-4_restaurant-15" d="M185.29,240.12c-1.31,3.84-2.54,7.73-3.9,11.59-2.49,7.03-5.15,13.34-5.47,21.03-.15,3.48,0,7.09-1.25,10.27-.85,2-2.08,3.81-3.62,5.34h0c-.14.08-.29.13-.44.16-.88.27-1.82-.22-2.09-1.11,0-.03-.02-.05-.02-.08-3.44,2.17-7.6,2.89-11.58,2.01-.39-2.88-.17-5.8.66-8.58,1.02-2.14,2.28-4.17,3.76-6.03,2.2-3.54,4.01-7.3,5.4-11.22,1.09-2.76,2.17-5.87.85-8.57,2.04-.26,4.08-.6,6.1-1.04.56-.07,1.09-.27,1.56-.59.64-.67,1.01-1.54,1.06-2.46.57-3.55,1.06-7.1,1.47-10.68.19-1.8-.34-7.2,1.73-7.86,2.38-.69,4.53,3.79,5.8,7.83Z"/><path class="cls-22_restaurant-15 targetColor" d="M184.63,245.38c2.48,3.54,5.35,6.78,8.55,9.67,2.09,2,4.39,3.78,6.85,5.31,10.7,6.05,24.08,4.51,33.11-3.81,2.4-2.17,4.17-4.96,5.11-8.06.92-3.14.32-6.53-1.61-9.17-.58-.77-1.36-1.37-2.26-1.72-1.4-.34-2.87-.21-4.18.38-5.15,1.82-10.15,5.06-15.58,4.4-4.8-.54-8.8-4.05-11.74-7.86-4.4-5.69-7.47-12.35-10.27-19.07-4.01-9.38-13.73-11.4-15.32.23-1.22,10.46,1.38,21.01,7.34,29.7Z" style="fill: rgb(104, 225, 253);"/><path class="cls-5_restaurant-15" d="M238.26,248.49c-.94,3.1-2.7,5.89-5.11,8.07-9.06,8.3-22.43,9.82-33.12,3.76-2.46-1.53-4.76-3.31-6.85-5.31-3.21-2.89-6.08-6.13-8.55-9.67-5.93-8.66-8.54-19.18-7.34-29.61,0-.31.09-.62.15-.91s.41-.56.62-.84c1.78,3.24,3.54,6.49,5.31,9.71,5.47,10.01,11.15,20.28,20.01,27.45,2.49,2.16,5.43,3.73,8.61,4.58,6.87,1.47,13.69-2.16,19.76-5.72-.76-4.23.31-11.94,4.02-11.63.32.27.61.58.87.91,1.95,2.65,2.55,6.06,1.61,9.21Z"/><path class="cls-20_restaurant-15" d="M209.74,181.09c-.1.98-.07,1.96.07,2.93,0,.54.26,1.16.78,1.35.39.12.82.01,1.12-.28.28-.29.51-.63.66-1,.35-.69,1.47-2.23.79-2.93-1.11-.35-2.3-.38-3.42-.07Z"/><path class="cls-21_restaurant-15" d="M225.92,198.61c-.1,1.51.35,3.01,1.26,4.23,1.49,1.68,3.99,2.01,5.87.79,2.74-1.88,2.82-6.38,5.74-7.97,1.14-.63,2.79-.9,3.1-2.17.08-.43.04-.87-.13-1.28-.58-1.48-1.77-2.64-3.27-3.17-6.38-2.41-12.43,3.24-12.56,9.57Z"/><path class="cls-20_restaurant-15" d="M251.6,232.02c-1.94-.46-3.53-1.86-4.24-3.73-.67-1.85-.96-3.82-.87-5.78-.02-.22.02-.45.12-.65.26-.3.64-.47,1.04-.44,3.87-.34,7.78-.51,11.66-.54,0,1.73.54,3.81.54,5.55.1,1.34-.09,2.68-.57,3.93-.53,1.27-1.83,2.05-3.2,1.91l-.28,6.31c-.1.63,0,1.27.31,1.83.45.49,1.01.88,1.63,1.12.59.34,1.14.94.98,1.58s-1.07.94-1.8,1.01c-2.39.25-4.78.4-7.19.43-.13-.91.72-1.64,1.47-2.1s1.72-.92,1.95-1.82c.09-.41.09-.83,0-1.23-.38-2.33-1.17-5.05-1.56-7.38Z"/><path class="cls-21_restaurant-15" d="M238.99,233.7c1.95-3.89,4.64-7.94,8.8-8.99.25,1.1,0,2.26-.67,3.15-.68.91-1.26,1.89-1.7,2.93-.09.25-.09.53,0,.78.18.44.72.57,1.19.62,2.89.29,5.82-.04,8.57-.98,1.87-.78,3.78-1.46,5.72-2.02.31-.1.64-.1.95,0,.33.18.56.5.63.87.51,1.79-.81,3.54-2.02,4.93-4.14,4.72-8.8,9.73-14.92,10.86-1.47.29-3.14.29-4.68.6-1.38.45-2.72.99-4.02,1.61-1.58.54-2.44.09-2.76-1.58-.81-4.4,3.11-9.18,4.92-12.76Z"/><path class="cls-19_restaurant-15" d="M259.23,226.81c.26.07.57.19.6.45,0,.11-.04.22-.09.32-1.39,2.94-4.47,4.7-7.7,4.4-.46-.04-.9-.17-1.31-.4-.37-.25-.7-.56-.95-.92-1.01-1.36-2.93-5.56.5-5.14,1.47.18,2.77.72,4.25.84,1.57.01,3.15.16,4.7.44Z"/></g><g id="table_restaurant-15"><path class="cls-22_restaurant-15 targetColor" d="M307.75,263.08c2.2-.18,4.4.34,6.29,1.47,1.83,1.36,2.57,3.73,3.2,5.87,3.86,13.31,8.14,26.72,15.9,38.15.56.68.91,1.49,1.01,2.36-.06.85-.4,1.66-.97,2.3-4.4,5.75-12.19,7.67-19.4,7.57-1.93-.23-3.89.04-5.69.78-1.28.81-2.36,1.9-3.15,3.18-3.89,5.36-8.03,11.14-14.26,13.34-6.24,2.2-13.2.48-18.9,3.46-4.4,2.32-7.06,6.91-10.02,10.93-1.13,1.56-2.55,3.17-4.48,3.37-2.7.28-4.72-2.26-6.54-4.28-3.74-4.15-8.69-6.98-13.2-10.27-4.52-3.29-8.92-7.34-10.61-12.65-.91,4.11-5.99,5.87-10.15,5.34s-7.95-2.79-12.05-3.74c-6.49-1.47-13.2.13-19.87.6-3.86.26-8.23-.09-10.74-3.02-2.32-2.7-2.24-6.79-1.06-10.15,1.19-3.36,3.29-6.32,4.75-9.57,3.17-6.98,3.26-14.91,4.09-22.52.72-6.6,2.35-15.92,7.79-20.54,2.69-2.26,7.2-1.47,10.53-1.47,4.92-.12,9.83-.23,14.67-.32,19.8-.39,39.6-.56,59.39-.51,11.16.05,22.31.16,33.44.32Z" style="fill: rgb(104, 225, 253);"/><path class="cls-8_restaurant-15" d="M182.18,313.9c7.86-11.63,5.71-27.03,7.73-40.92.44-2.93,1.47-6.41,4.25-7.51,1.06-.35,2.17-.5,3.29-.44l104.71-1.47c2.93,0,5.87,0,8.33,1.47,4.93,2.93,5.11,9.86,7.47,15.08l-10.27-10.07c-1.47,2.29-1.47,5.21-1.35,7.94.33,6.82,1.07,13.62,2.22,20.35.48,3.51,1.46,6.92,2.93,10.14,1.5,3.24,4.17,5.79,7.48,7.13-2.61,1.52-5.59,2.28-8.61,2.2-1.3.03-2.58-.32-3.68-1-.87-.71-1.58-1.59-2.1-2.58-5.15-8.61-8.9-17.98-11.09-27.77-.39-2.35-1.07-4.63-2.04-6.81-1-2.18-2.93-3.8-5.25-4.4-2.84-.36-5.63.89-7.26,3.24-1.54,2.33-2.54,4.98-2.93,7.75-1.06,5.23-1.55,10.56-1.47,15.89.1,5.52.82,11.12-.37,16.52-1.85,8.39-8,15.08-11.83,22.79,6.24-21.01,7.08-43.26,2.45-64.69.05-2.13-1.64-3.9-3.77-3.94-.25,0-.5.01-.75.06l-41.24-1.2c-4.49-.13-9.32-.18-13.06,2.32-4.08,2.73-5.87,7.76-7.34,12.43l-6.22,19.56c-.56,1.43-.84,2.96-.82,4.5.23,1.73.92,3.36,1.98,4.74,4.2,6.03,10.58,10.19,17.8,11.58,1.45.35,2.96.35,4.4,0,3.46-1.06,4.97-5.03,6.02-8.5l.21,9.49c.14,1.02-.08,2.06-.63,2.93-.56.59-1.31.97-2.11,1.09-4.62,1.01-9.32-.88-13.87-2.22-7.78-2.29-15.27-2.39-23.27-2.08-2.93.12-4.4-1.47-4.4-4.56-.12-3.51,2.63-6.29,4.46-9.02Z"/></g><g id="food_restaurant-15"><rect class="cls-20_restaurant-15" x="226.32" y="258.94" width="60.08" height="4.45"/><path class="cls-17_restaurant-15" d="M237.34,253.51c.09-.52.29-1.02.59-1.47.34-.41.78-.72,1.28-.91,1.76-.66,3.66-.88,5.53-.63.35.06.71.03,1.06-.07.31-.15.6-.35.84-.6,1.39-1.07,3.06-1.72,4.81-1.85,1.72-.19,3.48-.09,5.21-.16,2.93-.12,5.87-.7,8.8-.88,2.94-.32,5.91.23,8.54,1.57,1.38.81,2.55,1.94,3.98,2.67,1.33.63,2.76,1.03,4.23,1.19.22,0,.43.08.6.22.14.19.2.42.18.65v2.42c.07.66-.02,1.33-.26,1.95-.64.95-1.67,1.56-2.82,1.66-2.24.4-4.51.6-6.78.57-11.43.25-22.92,0-34.33-.73-1.01-.07-1.76-.19-1.95-1.32-.1-1.44.07-2.89.51-4.27Z"/><path class="cls-7_restaurant-15" d="M255.29,255.07c-2.86-.09-5.71-.42-8.52-.97-2.85-.62-5.78-1.64-8.61-.97-.29.05-.55.18-.76.38-.2.25-.29.58-.25.9.1,2.2,2.55,3.46,4.7,4.02,4.09.93,8.28,1.39,12.47,1.38,7.82.36,15.66.31,23.48-.15,2.41-.18,3.33-2.2.97-3.71-1.25-.79-3.05-.4-4.4-.4h-5.97c-4.43-.09-8.76-.23-13.09-.48Z"/></g></svg>