<svg version="1.1" id="Layer_1" xmlns="http://www.w3.org/2000/svg" xmlns:xlink="http://www.w3.org/1999/xlink" x="0px" y="0px" viewBox="0 0 500 500" style="width: 161px;" xml:space="preserve" data-imageid="under-constructions-1-73" imageName="Under Constructions 1" class="illustrations_image">
<style type="text/css">
	.st0_under-constructions-1-73{fill:#ACE29A;}
	.st1_under-constructions-1-73{fill:url(#SVGID_1_);}
	.st2_under-constructions-1-73{fill:url(#SVGID_00000070094391537641100540000007859098860651343028_);}
	.st3_under-constructions-1-73{fill:url(#SVGID_00000147188050794237874430000006399495050340779453_);}
	.st4_under-constructions-1-73{fill:url(#SVGID_00000117660908292226466420000009389525796425650600_);}
	.st5_under-constructions-1-73{fill:url(#SVGID_00000116213488860410846380000003262860230291891888_);}
	.st6_under-constructions-1-73{fill:url(#SVGID_00000053533174693565756280000009383467193159378601_);}
	.st7_under-constructions-1-73{fill:#606060;}
	.st8_under-constructions-1-73{fill:#68E1FD;}
	.st9_under-constructions-1-73{fill:#18516B;}
	.st10_under-constructions-1-73{fill:#E27144;}
	.st11_under-constructions-1-73{fill:#999A1C;}
	.st12_under-constructions-1-73{opacity:0.3;fill:#053855;enable-background:new    ;}
	.st13_under-constructions-1-73{opacity:0.6;fill:#053855;enable-background:new    ;}
	.st14_under-constructions-1-73{opacity:0.44;fill:#053855;enable-background:new    ;}
	.st15_under-constructions-1-73{opacity:0.1;fill:#053855;enable-background:new    ;}
	.st16_under-constructions-1-73{fill:#F2F2F2;}
</style>
<path id="Base_under-constructions-1-73" class="st0_under-constructions-1-73" d="M457.3,290.2l-243.7,141c-11.8,6.8-26.3,6.8-38.1,0.1L40,353.5c-7.3-4.2-9.8-13.5-5.6-20.8&#10;&#9;c1.3-2.3,3.2-4.2,5.5-5.5l254-148.8c4.7-2.7,10.6-2.7,15.3,0l148,85.5c7.3,4.2,9.8,13.5,5.6,20.8C461.4,287,459.5,288.9,457.3,290.2&#10;&#9;z"/>
<g id="Shadow_under-constructions-1-73">
	
		<linearGradient id="SVGID_1_-under-constructions-1-73" gradientUnits="userSpaceOnUse" x1="258.9589" y1="206.7689" x2="285.4689" y2="179.8189" gradientTransform="matrix(1 0 0 -1 0 502)">
		<stop offset="0" style="stop-color:#00A99D"/>
		<stop offset="1" style="stop-color:#ACE29A"/>
	</linearGradient>
	<path class="st1_under-constructions-1-73" d="M328.5,297.8c-16.2-11.1-27.3-18.7-42.8-30.9l-82.6,39.6l43.4,43.4C255.9,344.1,319.2,303.8,328.5,297.8z"/>
	
		<linearGradient id="SVGID_00000155128128617144408000000008781642843229884074_-under-constructions-1-73" gradientUnits="userSpaceOnUse" x1="-798.5435" y1="236.0755" x2="-818.9735" y2="206.7455" gradientTransform="matrix(-1 0 0 -1 -384.01 502)">
		<stop offset="0" style="stop-color:#00A99D"/>
		<stop offset="1" style="stop-color:#ACE29A"/>
	</linearGradient>
	<path style="fill:url(#SVGID_00000155128128617144408000000008781642843229884074_);" d="M425.6,306.5&#10;&#9;&#9;c10.7-6.2,24.4-13.9,36.4-20.6c-10.5-7.7-21.5-14.7-31.8-22.8l-36.9,20.7C403.7,291.8,414.7,299.1,425.6,306.5z"/>
	
		<linearGradient id="SVGID_00000023251266502407311070000008077380134062283392_-under-constructions-1-73" gradientUnits="userSpaceOnUse" x1="243.4687" y1="129.3387" x2="265.5687" y2="106.8587" gradientTransform="matrix(1 0 0 -1 0 502)">
		<stop offset="0" style="stop-color:#00A99D"/>
		<stop offset="1" style="stop-color:#ACE29A"/>
	</linearGradient>
	<path style="fill:url(#SVGID_00000023251266502407311070000008077380134062283392_);" d="M289.9,386.2&#10;&#9;&#9;c-16.2-11.2-32.4-22.4-47.9-34.6l-33.6,19.1l53.4,33C271.2,397.9,280.6,392.2,289.9,386.2z"/>
	
		<linearGradient id="SVGID_00000124849277233675655830000011293807242231309752_-under-constructions-1-73" gradientUnits="userSpaceOnUse" x1="-542.5569" y1="143.1778" x2="-562.9869" y2="113.8478" gradientTransform="matrix(-1 0 0 -1 -384.01 502)">
		<stop offset="0" style="stop-color:#00A99D"/>
		<stop offset="1" style="stop-color:#ACE29A"/>
	</linearGradient>
	<path style="fill:url(#SVGID_00000124849277233675655830000011293807242231309752_);" d="M169.6,399.4&#10;&#9;&#9;c10.7-6.1,24.4-13.9,36.4-20.6c-10.5-7.7-21.5-14.7-31.8-22.8l-36.9,20.7C147.7,384.7,158.7,392,169.6,399.4z"/>
	
		<linearGradient id="SVGID_00000108999968892312936600000003018348185671183247_-under-constructions-1-73" gradientUnits="userSpaceOnUse" x1="-718.2859" y1="186.1941" x2="-738.0759" y2="157.7841" gradientTransform="matrix(-1 0 0 -1 -384.01 502)">
		<stop offset="0" style="stop-color:#00A99D"/>
		<stop offset="1" style="stop-color:#ACE29A"/>
	</linearGradient>
	<path style="fill:url(#SVGID_00000108999968892312936600000003018348185671183247_);" d="M333,320.2l-4.5,2.5&#10;&#9;&#9;c5.1,3.9,23.4,20.9,28.6,24.5c1.4-0.8,5.2-3.3,6.8-4.2C358.6,339.4,338,324.2,333,320.2z"/>
	
		<linearGradient id="SVGID_00000033335543914948908820000006966149578584141998_-under-constructions-1-73" gradientUnits="userSpaceOnUse" x1="-751.5142" y1="205.4029" x2="-771.2942" y2="176.9929" gradientTransform="matrix(-1 0 0 -1 -384.01 502)">
		<stop offset="0" style="stop-color:#00A99D"/>
		<stop offset="1" style="stop-color:#ACE29A"/>
	</linearGradient>
	<path style="fill:url(#SVGID_00000033335543914948908820000006966149578584141998_);" d="M366.5,301.6L366.5,301.6&#10;&#9;&#9;c-1,1.3-2,2.5-3,3.8c6.8,5.7,21.9,19.6,26.6,22.8c1.4-0.8,5.2-3.3,6.8-4.2C391.7,320.5,372.2,306.1,366.5,301.6z"/>
</g>
<g id="Monitor_under-constructions-1-73">
	<path class="st7_under-constructions-1-73" d="M257,253.1l28.7,13.8c3.3,1.6,4.7,5.5,3.1,8.8c-0.6,1.2-1.5,2.2-2.6,2.8l-68,39.7c-3.1,1.8-7,0.8-8.9-2.1&#10;&#9;&#9;l-16.5-25.7"/>
	<path class="st8_under-constructions-1-73 targetColor" d="M100.9,186.6L329.7,54.8c4.9-2.8,11.2-1.2,14.1,3.8c0.9,1.6,1.4,3.4,1.4,5.2v137.1c0,3.1-1.6,5.9-4.3,7.4&#10;&#9;&#9;L97,349.1c-2.7,1.5-6,0.6-7.6-2c-0.5-0.8-0.7-1.8-0.7-2.8V207.7C88.7,199,93.3,191,100.9,186.6z" style="fill: rgb(104, 225, 253);"/>
	<path class="st9_under-constructions-1-73" d="M329.7,65.2L107.8,192.8c-4.8,2.8-7.8,7.9-7.8,13.5v102.8c0,3.1,2.5,5.6,5.6,5.6c1,0,1.9-0.3,2.8-0.7&#10;&#9;&#9;l226.3-129.9c1.7-1,2.8-2.8,2.8-4.8V69.7c0-2.9-2.3-5.2-5.2-5.2C331.4,64.5,330.5,64.7,329.7,65.2z"/>
	<ellipse transform="matrix(0.1891 -0.982 0.982 0.1891 -56.5513 438.7251)" class="st9_under-constructions-1-73" cx="237.4" cy="253.6" rx="5.5" ry="4.8"/>
</g>
<g id="Plant_under-constructions-1-73">
	<ellipse class="st8_under-constructions-1-73 targetColor" cx="411.9" cy="272.1" rx="25.7" ry="18.1" style="fill: rgb(104, 225, 253);"/>
	<ellipse class="st10_under-constructions-1-73" cx="411.9" cy="261.4" rx="19.3" ry="7.9"/>
	<path class="st11_under-constructions-1-73" d="M413.2,261.6c1.5-2.1,3-4.4,4.6-6.9c2-3.2,4-6.5,5.7-9.8c1.6-3,3-6.1,4.2-9.3c1.3-3.5,2.3-7.1,3-10.7&#10;&#9;&#9;c0.2-1,0.4-1.9,0.5-2.9c0.1-0.4,0.1-0.4,0.1-0.3c0-0.1,0-0.3,0.1-0.8c0.2-1.9,0.3-3.9,0.3-5.9c0.1-6.8-1.2-13.5-3.8-19.7&#10;&#9;&#9;c-7,10.1-11.7,21.6-13.8,33.6c-0.1,0.7-0.3,1.4-0.4,2.2c0-0.1-0.2,1.3-0.3,1.9s-0.2,1.7-0.2,1.8c-0.1,0.9-0.2,1.8-0.2,2.8&#10;&#9;&#9;c-0.3,3.6-0.4,7.1-0.4,10.7C412.6,252.7,412.9,257.1,413.2,261.6z M421.4,208.4c0.5-0.5,1-1.1,1.5-1.6l0,0&#10;&#9;&#9;c-0.1,0.4-0.2,0.9-0.1,1.4C422.3,208.2,421.9,208.2,421.4,208.4L421.4,208.4z"/>
	<path class="st11_under-constructions-1-73" d="M413.7,261.9c0.1-2.6,0.2-5.3,0.2-8.3c0-3.8-0.2-7.6-0.5-11.4c-0.2-3.4-0.8-6.8-1.5-10.1&#10;&#9;&#9;c-0.8-3.6-1.9-7.2-3.2-10.6c-0.4-0.9-0.7-1.8-1.1-2.7c-0.2-0.4-0.1-0.4-0.1-0.3s-0.1-0.3-0.4-0.7c-0.9-1.7-1.9-3.4-2.9-5.1&#10;&#9;&#9;c-3.6-5.7-8.3-10.7-13.9-14.5c-0.4,12.3,1.9,24.4,6.6,35.8c0.3,0.7,0.6,1.4,0.9,2l0.8,1.7c0.2,0.5,0.7,1.5,0.8,1.6&#10;&#9;&#9;c0.4,0.8,0.8,1.6,1.3,2.5c1.7,3.1,3.5,6.2,5.4,9.2C408.4,254.7,411,258.3,413.7,261.9z M391.8,212.7c0.1-0.7,0.2-1.4,0.4-2.1l0,0&#10;&#9;&#9;c0.1,0.4,0.4,0.9,0.7,1.2C392.5,212,392.1,212.3,391.8,212.7L391.8,212.7z"/>
	<path class="st11_under-constructions-1-73" d="M413.8,263.2c-0.8-1.5-1.6-2.9-2.6-4.5c-1.2-2-2.5-4-4-6c-1.2-1.8-2.6-3.4-4.1-4.9c-1.6-1.7-3.3-3.3-5.2-4.7&#10;&#9;&#9;l-1.5-1.1c-0.2-0.2-0.2-0.1-0.2-0.1l-0.4-0.3c-1-0.6-2.1-1.3-3.2-1.8c-3.8-1.9-7.9-3.1-12.2-3.4c3.7,6.7,8.9,12.6,15.1,17.2&#10;&#9;&#9;c0.4,0.3,0.7,0.6,1.1,0.8l1,0.7l1,0.6l1.5,0.9c1.9,1.1,3.9,2.2,5.9,3.2C408.7,261.1,411.2,262.2,413.8,263.2z M386.1,243.8&#10;&#9;&#9;c-0.2-0.4-0.3-0.8-0.5-1.2l0,0c0.2,0.2,0.5,0.4,0.8,0.4C386.3,243.2,386.2,243.5,386.1,243.8z"/>
	<path class="st11_under-constructions-1-73" d="M413.2,261.6c1.5-2.1,3-4.4,4.6-6.9c2-3.2,4-6.5,5.7-9.8c1.6-3,3-6.1,4.2-9.3c1.3-3.5,2.3-7.1,3-10.7&#10;&#9;&#9;c0.2-1,0.4-1.9,0.5-2.9c0.1-0.4,0.1-0.4,0.1-0.3c0-0.1,0-0.3,0.1-0.8c0.2-1.9,0.3-3.9,0.3-5.9c0.1-6.8-1.2-13.5-3.8-19.7&#10;&#9;&#9;c-7,10.1-11.7,21.6-13.8,33.6c-0.1,0.7-0.3,1.4-0.4,2.2c0-0.1-0.2,1.3-0.3,1.9s-0.2,1.7-0.2,1.8c-0.1,0.9-0.2,1.8-0.2,2.8&#10;&#9;&#9;c-0.3,3.6-0.4,7.1-0.4,10.7C412.6,252.7,412.9,257.1,413.2,261.6z"/>
	<path class="st11_under-constructions-1-73" d="M413.7,261.9c0.1-2.6,0.2-5.3,0.2-8.3c0-3.8-0.2-7.6-0.5-11.4c-0.2-3.4-0.8-6.8-1.5-10.1&#10;&#9;&#9;c-0.8-3.6-1.9-7.2-3.2-10.6c-0.4-0.9-0.7-1.8-1.1-2.7c-0.2-0.4-0.1-0.4-0.1-0.3s-0.1-0.3-0.4-0.7c-0.9-1.7-1.9-3.4-2.9-5.1&#10;&#9;&#9;c-3.6-5.7-8.3-10.7-13.9-14.5c-0.4,12.3,1.9,24.4,6.6,35.8c0.3,0.7,0.6,1.4,0.9,2l0.8,1.7c0.2,0.5,0.7,1.5,0.8,1.6&#10;&#9;&#9;c0.4,0.8,0.8,1.6,1.3,2.5c1.7,3.1,3.5,6.2,5.4,9.2C408.4,254.7,411,258.3,413.7,261.9z"/>
	<path class="st11_under-constructions-1-73" d="M413.8,263.2c-0.8-1.5-1.6-2.9-2.6-4.5c-1.2-2-2.5-4-4-6c-1.2-1.8-2.6-3.4-4.1-4.9c-1.6-1.7-3.3-3.3-5.2-4.7&#10;&#9;&#9;l-1.5-1.1c-0.2-0.2-0.2-0.1-0.2-0.1l-0.4-0.3c-1-0.6-2.1-1.3-3.2-1.8c-3.8-1.9-7.9-3.1-12.2-3.4c3.7,6.7,8.9,12.6,15.1,17.2&#10;&#9;&#9;c0.4,0.3,0.7,0.6,1.1,0.8l1,0.7l1,0.6l1.5,0.9c1.9,1.1,3.9,2.2,5.9,3.2C408.7,261.1,411.2,262.2,413.8,263.2z"/>
</g>
<g id="Box_under-constructions-1-73">
	<path class="st10_under-constructions-1-73" d="M239.3,388.5V354l-30.9-17.3v34.2L239.3,388.5z"/>
	<path class="st12_under-constructions-1-73" d="M239.3,388.5V354l-30.9-17.3v34.2L239.3,388.5z"/>
	<path class="st10_under-constructions-1-73" d="M239.3,354l30.1-17.3c0,0,0.8,34.8,0,35.4s-30.1,16.4-30.1,16.4L239.3,354z"/>
	<polygon class="st10_under-constructions-1-73" points="269.4,336.7 239.3,318.3 208.4,336.7 239.3,354 &#9;"/>
	<polygon class="st13_under-constructions-1-73" points="269.4,336.7 239.3,318.3 208.4,336.7 239.3,354 &#9;"/>
	<polygon class="st10_under-constructions-1-73" points="208.4,336.7 197.2,317.3 228.9,298.7 239.3,318.3 &#9;"/>
	<polygon class="st10_under-constructions-1-73" points="269.4,336.7 277.5,319.3 244.2,337.4 239.3,354 &#9;"/>
	<polygon class="st12_under-constructions-1-73" points="269.4,336.7 277.5,319.3 244.2,337.4 239.3,354 &#9;"/>
</g>
<g id="Gear_under-constructions-1-73">
	<path class="st8_under-constructions-1-73 targetColor" d="M131.2,372.3c0.1,0.3,0.8,2.7,1.3,2.2s3.2,0.6,3.2,0.6l7.5-9.5l-1-3.1h-6.7" style="fill: rgb(104, 225, 253);"/>
	<path class="st8_under-constructions-1-73 targetColor" d="M167.3,331.3l0.7-2.5l7.9-4.3v-13.4c0-0.3-7.6,4.5-7.6,4.5l-0.4-0.8c-0.4-2.1-1.2-4-2.3-5.8l5.6-10.2l-7-5.4&#10;&#9;&#9;l-5.3,10.5l0,0c-1.9-0.4-3.9-0.4-5.8,0.1V294l-10.1,5.6v10.6c-2,1.9-3.8,4-5.4,6.2l-6.1-3.9l-6.9,13l5.4,4.3l-0.5,2.2&#10;&#9;&#9;c-0.7,2.3-1.3,4.7-1.7,7l-8.1,4.4v13.4l7.7-4.6c0.3,2.4,1.1,4.8,2.4,6.9l-5.8,9.8l7.3,5.5l5.1-10.1h6.4v10.1l9.6-5.9v-9.9&#10;&#9;&#9;c2.2-2.2,4.1-4.6,5.8-7.2l5.8,4l7-13.3l-5.8-4.3l0.6-2C166.5,334.4,167,332.8,167.3,331.3z" style="fill: rgb(104, 225, 253);"/>
	<polyline class="st8_under-constructions-1-73 targetColor" points="185.6,316.7 176.7,311.3 174.4,314.6 177.9,321.8 &#9;" style="fill: rgb(104, 225, 253);"/>
	<polyline class="st8_under-constructions-1-73 targetColor" points="173.9,361.1 167.3,358.4 167.3,354.4 &#9;" style="fill: rgb(104, 225, 253);"/>
	<polygon class="st8_under-constructions-1-73 targetColor" points="152.7,380.1 143.1,374.5 145.5,367.2 154.2,369.8 &#9;" style="fill: rgb(104, 225, 253);"/>
	<polygon class="st8_under-constructions-1-73 targetColor" points="164.1,293.5 173.8,299.1 168.5,309.6 162.7,309.8 161.3,299.1 &#9;" style="fill: rgb(104, 225, 253);"/>
	
		<ellipse transform="matrix(0.3657 -0.9307 0.9307 0.3657 -215.7904 362.6658)" class="st8_under-constructions-1-73 targetColor" cx="158.2" cy="339.6" rx="7.5" ry="4.4" style="fill: rgb(104, 225, 253);"/>
	<polygon class="st8_under-constructions-1-73 targetColor" points="142.9,299.6 152.6,305.2 162.7,299.6 153,294 &#9;" style="fill: rgb(104, 225, 253);"/>
	<polygon class="st8_under-constructions-1-73 targetColor" points="141.2,318.1 131.5,312.5 124.6,325.6 134.3,331.2 &#9;" style="fill: rgb(104, 225, 253);"/>
	<polygon class="st8_under-constructions-1-73 targetColor" points="124.2,369 133.9,374.6 141.2,380.1 131.5,374.5 &#9;" style="fill: rgb(104, 225, 253);"/>
	<path class="st14_under-constructions-1-73" d="M131.2,372.3c0.1,0.3,0.8,2.7,1.3,2.2s3.2,0.6,3.2,0.6l7.5-9.5l-1-3.1h-6.7"/>
	<path class="st8_under-constructions-1-73 targetColor" d="M167.3,331.3l0.7-2.5l7.9-4.3v-13.4c0-0.3-7.6,4.5-7.6,4.5l-0.4-0.8c-0.4-2.1-1.2-4-2.3-5.8l5.6-10.2l-7-5.4&#10;&#9;&#9;l-5.3,10.5l0,0c-1.9-0.4-3.9-0.4-5.8,0.1V294l-10.1,5.6v10.6c-2,1.9-3.8,4-5.4,6.2l-6.1-3.9l-6.9,13l5.4,4.3l-0.5,2.2&#10;&#9;&#9;c-0.7,2.3-1.3,4.7-1.7,7l-8.1,4.4v13.4l7.7-4.6c0.3,2.4,1.1,4.8,2.4,6.9l-5.8,9.8l7.3,5.5l5.1-10.1h6.4v10.1l9.6-5.9v-9.9&#10;&#9;&#9;c2.2-2.2,4.1-4.6,5.8-7.2l5.8,4l7-13.3l-5.8-4.3l0.6-2C166.5,334.4,167,332.8,167.3,331.3z" style="fill: rgb(104, 225, 253);"/>
	<polyline class="st14_under-constructions-1-73" points="185.6,316.7 176.7,311.3 174.4,314.6 177.9,321.8 &#9;"/>
	<polyline class="st8_under-constructions-1-73 targetColor" points="173.9,361.1 167.3,358.4 167.3,354.4 &#9;" style="fill: rgb(104, 225, 253);"/>
	<polygon class="st8_under-constructions-1-73 targetColor" points="152.7,380.1 143.1,374.5 145.5,367.2 154.2,369.8 &#9;" style="fill: rgb(104, 225, 253);"/>
	<polygon class="st8_under-constructions-1-73 targetColor" points="164.1,293.5 173.8,299.1 168.5,309.6 162.7,309.8 161.3,299.1 &#9;" style="fill: rgb(104, 225, 253);"/>
	
		<ellipse transform="matrix(0.3657 -0.9307 0.9307 0.3657 -215.7904 362.6658)" class="st8_under-constructions-1-73 targetColor" cx="158.2" cy="339.6" rx="7.5" ry="4.4" style="fill: rgb(104, 225, 253);"/>
	<polygon class="st8_under-constructions-1-73 targetColor" points="141.2,318.1 131.5,312.5 124.6,325.6 134.3,331.2 &#9;" style="fill: rgb(104, 225, 253);"/>
	<polygon class="st8_under-constructions-1-73 targetColor" points="124.2,369 133.9,374.6 141.2,380.1 131.5,374.5 &#9;" style="fill: rgb(104, 225, 253);"/>
	<path class="st14_under-constructions-1-73" d="M167.3,331.3l0.7-2.5l7.9-4.3v-13.4c0-0.3-7.6,4.5-7.6,4.5l-0.4-0.8c-0.4-2.1-1.2-4-2.3-5.8l5.6-10.2l-7-5.4&#10;&#9;&#9;l-5.3,10.5l0,0c-1.9-0.4-3.9-0.4-5.8,0.1V294l-10.1,5.6v10.6c-2,1.9-3.8,4-5.4,6.2l-6.1-3.9l-6.9,13l5.4,4.3l-0.5,2.2&#10;&#9;&#9;c-0.7,2.3-1.3,4.7-1.7,7l-8.1,4.4v13.4l7.7-4.6c0.3,2.4,1.1,4.8,2.4,6.9l-5.8,9.8l7.3,5.5l5.1-10.1h6.4v10.1l9.6-5.9v-9.9&#10;&#9;&#9;c2.2-2.2,4.1-4.6,5.8-7.2l5.8,4l7-13.3l-5.8-4.3l0.6-2C166.5,334.4,167,332.8,167.3,331.3z"/>
	<polyline class="st15_under-constructions-1-73" points="173.9,361.1 167.3,358.4 167.3,354.4 &#9;"/>
	<polygon class="st15_under-constructions-1-73" points="152.7,380.1 143.1,374.5 145.5,367.2 154.2,369.8 &#9;"/>
	
		<ellipse transform="matrix(0.3657 -0.9307 0.9307 0.3657 -215.7904 362.6658)" class="st15_under-constructions-1-73" cx="158.2" cy="339.6" rx="7.5" ry="4.4"/>
	<polygon class="st15_under-constructions-1-73" points="141.2,318.1 131.5,312.5 124.6,325.6 134.3,331.2 &#9;"/>
	<polygon class="st15_under-constructions-1-73" points="124.2,369 133.9,374.6 141.2,380.1 131.5,374.5 &#9;"/>
	<polyline class="st15_under-constructions-1-73" points="173.9,361.1 167.3,358.4 167.3,354.4 &#9;"/>
	<polygon class="st14_under-constructions-1-73" points="152.7,380.1 143.1,374.5 145.5,367.2 154.2,369.8 &#9;"/>
	<path class="st8_under-constructions-1-73 targetColor" d="M177,336.9l0.7-2.5l7.9-4.3v-13.4c0-0.3-7.6,4.5-7.6,4.5l-0.4-0.8c-0.4-2.1-1.2-4-2.3-5.8l5.5-10.2l-7-5.4&#10;&#9;&#9;l-5.3,10.5h-0.1c-1.9-0.4-3.9-0.4-5.8,0.1v-10.1l-10.1,5.6v10.6c-2,1.9-3.8,4-5.4,6.2l-6.1-3.9l-6.9,13l5.4,4.3l-0.5,2.2&#10;&#9;&#9;c-0.7,2.3-1.3,4.7-1.7,7l-8.1,4.5v13.4l7.7-4.6c0.3,2.4,1.2,4.8,2.5,6.8l-5.8,9.8l7.3,5.5l5.1-10.1h6.4v10.1l9.6-5.9v-9.9&#10;&#9;&#9;c2.2-2.2,4.2-4.6,5.8-7.2l5.8,4l7-13.3l-5.8-4.3l0.6-2C176.2,340,176.6,338.4,177,336.9z" style="fill: rgb(104, 225, 253);"/>
	
		<ellipse transform="matrix(0.3657 -0.9307 0.9307 0.3657 -215.7904 362.6658)" class="st14_under-constructions-1-73" cx="158.2" cy="339.6" rx="7.5" ry="4.4"/>
	<polygon class="st14_under-constructions-1-73" points="124.2,369 133.9,374.6 141.2,380.1 131.5,374.5 &#9;"/>
	<polygon class="st8_under-constructions-1-73 targetColor" points="142.9,299.6 152.6,305.2 162.7,299.6 153,294 &#9;" style="fill: rgb(104, 225, 253);"/>
	<polygon class="st14_under-constructions-1-73" points="142.9,299.6 152.6,305.2 162.7,299.6 153,294 &#9;"/>
	<polygon class="st8_under-constructions-1-73 targetColor" points="119.8,343.6 129.5,349.2 129.5,362.5 119.8,356.9 &#9;" style="fill: rgb(104, 225, 253);"/>
	<polygon class="st14_under-constructions-1-73" points="119.8,343.6 129.5,349.2 129.5,362.5 119.8,356.9 &#9;"/>
</g>
<g id="Ladder_under-constructions-1-73">
	<path class="st16_under-constructions-1-73" d="M331.8,152.1l35.7,150.8c0.9,3.6-4.7,5.2-5.6,1.5l-35.7-150.8C325.3,150,330.9,148.4,331.8,152.1z"/>
	<path class="st16_under-constructions-1-73" d="M298.3,169.9L334,320.7c0.9,3.6-4.7,5.2-5.6,1.5l-35.7-150.8C291.8,167.8,297.4,166.3,298.3,169.9&#10;&#9;&#9;L298.3,169.9z"/>
	<path class="st16_under-constructions-1-73" d="M335.5,175.9L302,194.6c-3.3,1.8-6.2-3.2-2.9-5l33.5-18.7C335.8,169,338.8,174,335.5,175.9L335.5,175.9z"/>
	<path class="st16_under-constructions-1-73" d="M339,196.8l-32.1,17.9c-3.3,1.8-6.2-3.2-2.9-5l32-17.9C339.3,190,342.2,195,339,196.8L339,196.8z"/>
	<path class="st16_under-constructions-1-73" d="M342.9,213.8l-32.1,17.9c-3.3,1.8-6.2-3.2-2.9-5l32.1-17.9C343.2,207,346.1,212,342.9,213.8L342.9,213.8z"/>
	<path class="st16_under-constructions-1-73" d="M347.9,232.1l-31.8,17.8c-3.3,1.8-6.2-3.2-2.9-5L345,227C348.3,225.2,351.2,230.2,347.9,232.1L347.9,232.1z"/>
	<path class="st16_under-constructions-1-73" d="M352.3,248.8l-31.8,17.8c-3.3,1.8-6.2-3.2-2.9-5l31.9-17.8C352.6,241.9,355.5,246.9,352.3,248.8L352.3,248.8z&#10;&#9;&#9;"/>
	<path class="st16_under-constructions-1-73" d="M357.1,268.2l-33.5,18.7c-3.3,1.8-6.2-3.2-2.9-5l33.5-18.7C357.5,261.4,360.4,266.4,357.1,268.2L357.1,268.2z&#10;&#9;&#9;"/>
</g>
</svg>